<?xml version="1.0" encoding="UTF-8" standalone="no"?>
<!DOCTYPE svg PUBLIC "-//W3C//DTD SVG 1.1//EN"
 "http://www.w3.org/Graphics/SVG/1.1/DTD/svg11.dtd">
<!-- Generated by graphviz version 2.40.1 (20161225.0304)
 -->
<!-- Title: %3 Pages: 1 -->
<svg width="1463pt" height="1262pt"
 viewBox="0.00 0.00 1463.37 1262.00" xmlns="http://www.w3.org/2000/svg" xmlns:xlink="http://www.w3.org/1999/xlink">
<g id="graph0" class="graph" transform="scale(1 1) rotate(0) translate(4 1258)">
<title>%3</title>
<polygon fill="#ffffff" stroke="transparent" points="-4,4 -4,-1258 1459.3747,-1258 1459.3747,4 -4,4"/>
<g id="clust1" class="cluster">
<title>cluster&#45;nid&#45;02</title>
<polygon fill="none" stroke="#cccccc" points="8,-376 8,-446 422.6249,-446 422.6249,-376 8,-376"/>
</g>
<g id="clust2" class="cluster">
<title>cluster&#45;nid&#45;03</title>
<polygon fill="none" stroke="#cccccc" points="8,-291 8,-361 422.6249,-361 422.6249,-291 8,-291"/>
</g>
<g id="clust5" class="cluster">
<title>cluster&#45;nid&#45;06</title>
<polygon fill="none" stroke="#cccccc" points="343.5624,-107 343.5624,-177 431.6873,-177 431.6873,-107 343.5624,-107"/>
</g>
<g id="clust6" class="cluster">
<title>cluster&#45;nid&#45;07</title>
<polygon fill="none" stroke="#cccccc" points="1080.1873,-943 1080.1873,-1013 1447.3747,-1013 1447.3747,-943 1080.1873,-943"/>
</g>
<g id="clust7" class="cluster">
<title>cluster&#45;nid&#45;08</title>
<polygon fill="none" stroke="#cccccc" points="1080.1873,-763 1080.1873,-833 1447.3747,-833 1447.3747,-763 1080.1873,-763"/>
</g>
<g id="clust8" class="cluster">
<title>cluster&#45;nid&#45;09</title>
<polygon fill="none" stroke="#cccccc" points="1080.1873,-663 1080.1873,-733 1447.3747,-733 1447.3747,-663 1080.1873,-663"/>
</g>
<g id="clust9" class="cluster">
<title>cluster&#45;nid&#45;0a</title>
<polygon fill="none" stroke="#cccccc" points="1071.1249,-1077 1071.1249,-1147 1159.2498,-1147 1159.2498,-1077 1071.1249,-1077"/>
</g>
<g id="clust18" class="cluster">
<title>cluster&#45;nid&#45;12&#45;out</title>
<polygon fill="none" stroke="#cccccc" points="308.6249,-794 308.6249,-878 466.6249,-878 466.6249,-794 308.6249,-794"/>
</g>
<g id="clust20" class="cluster">
<title>cluster&#45;nid&#45;13&#45;out</title>
<polygon fill="none" stroke="#cccccc" points="308.6249,-978 308.6249,-1062 466.6249,-1062 466.6249,-978 308.6249,-978"/>
</g>
<g id="clust21" class="cluster">
<title>cluster&#45;nid&#45;14&#45;in</title>
<polygon fill="none" stroke="#cccccc" points="686.6249,-560 686.6249,-644 863.6249,-644 863.6249,-560 686.6249,-560"/>
</g>
<g id="clust23" class="cluster">
<title>cluster&#45;nid&#45;15&#45;in</title>
<polygon fill="none" stroke="#cccccc" points="686.6249,-192 686.6249,-276 863.6249,-276 863.6249,-192 686.6249,-192"/>
</g>
<g id="clust25" class="cluster">
<title>cluster&#45;nid&#45;16&#45;in</title>
<polygon fill="none" stroke="#cccccc" points="686.6249,-468 686.6249,-552 863.6249,-552 863.6249,-468 686.6249,-468"/>
</g>
<g id="clust27" class="cluster">
<title>cluster&#45;nid&#45;17&#45;in</title>
<polygon fill="none" stroke="#cccccc" points="686.6249,-100 686.6249,-184 863.6249,-184 863.6249,-100 686.6249,-100"/>
</g>
<g id="clust30" class="cluster">
<title>cluster&#45;nid&#45;18&#45;out</title>
<polygon fill="none" stroke="#cccccc" points="299.1249,-886 299.1249,-970 476.1249,-970 476.1249,-886 299.1249,-886"/>
</g>
<g id="clust32" class="cluster">
<title>cluster&#45;nid&#45;19&#45;out</title>
<polygon fill="none" stroke="#cccccc" points="299.1249,-702 299.1249,-786 476.1249,-786 476.1249,-702 299.1249,-702"/>
</g>
<g id="clust34" class="cluster">
<title>cluster&#45;nid&#45;1a&#45;out</title>
<polygon fill="none" stroke="#cccccc" points="299.1249,-610 299.1249,-694 476.1249,-694 476.1249,-610 299.1249,-610"/>
</g>
<g id="clust35" class="cluster">
<title>cluster&#45;nid&#45;1b&#45;in</title>
<polygon fill="none" stroke="#cccccc" points="683.6249,-376 683.6249,-460 1150.1873,-460 1150.1873,-376 683.6249,-376"/>
</g>
<g id="clust36" class="cluster">
<title>cluster&#45;nid&#45;1b&#45;out</title>
<polygon fill="none" stroke="#cccccc" points="17.0624,-518 17.0624,-602 479.1249,-602 479.1249,-518 17.0624,-518"/>
</g>
<g id="clust40" class="cluster">
<title>cluster&#45;nid&#45;1e&#45;in</title>
<polygon fill="none" stroke="#cccccc" points="679.1249,-8 679.1249,-92 871.1249,-92 871.1249,-8 679.1249,-8"/>
</g>
<g id="clust43" class="cluster">
<title>cluster&#45;nid&#45;1f&#45;out</title>
<polygon fill="none" stroke="#cccccc" points="299.1249,-1162 299.1249,-1246 476.1249,-1246 476.1249,-1162 299.1249,-1162"/>
</g>
<g id="clust45" class="cluster">
<title>cluster&#45;nid&#45;21&#45;in</title>
<polygon fill="none" stroke="#cccccc" points="685.1249,-284 685.1249,-368 865.1249,-368 865.1249,-284 685.1249,-284"/>
</g>
<g id="clust47" class="cluster">
<title>cluster&#45;nid&#45;22</title>
<polygon fill="none" stroke="#cccccc" points="714.2505,-652 714.2505,-744 835.9993,-744 835.9993,-652 714.2505,-652"/>
</g>
<g id="clust48" class="cluster">
<title>cluster&#45;nid&#45;23</title>
<polygon fill="none" stroke="#cccccc" points="714.2505,-752 714.2505,-844 835.9993,-844 835.9993,-752 714.2505,-752"/>
</g>
<g id="clust49" class="cluster">
<title>cluster&#45;nid&#45;24</title>
<polygon fill="none" stroke="#cccccc" points="714.2505,-932 714.2505,-1024 835.9993,-1024 835.9993,-932 714.2505,-932"/>
</g>
<g id="clust50" class="cluster">
<title>cluster&#45;nid&#45;25</title>
<polygon fill="none" stroke="#cccccc" points="715.2872,-1066 715.2872,-1158 834.9625,-1158 834.9625,-1066 715.2872,-1066"/>
</g>
<g id="clust55" class="cluster">
<title>cluster&#45;nid&#45;29&#45;out</title>
<polygon fill="none" stroke="#cccccc" points="299.1249,-1070 299.1249,-1154 476.1249,-1154 476.1249,-1070 299.1249,-1070"/>
</g>
<!-- nid&#45;02 -->
<g id="node1" class="node">
<title>nid&#45;02</title>
<ellipse fill="none" stroke="#0000ff" cx="52.0624" cy="-411" rx="36.125" ry="26.7407"/>
<text text-anchor="middle" x="52.0624" y="-414.8" font-family="Times,serif" font-size="14.00" fill="#000000">0x02</text>
<text text-anchor="middle" x="52.0624" y="-399.8" font-family="Times,serif" font-size="14.00" fill="#000000">Stereo</text>
</g>
<!-- nid&#45;02&#45;ampout -->
<g id="node2" class="node">
<title>nid&#45;02&#45;ampout</title>
<polygon fill="none" stroke="#0000ff" points="414.6249,-411 374.1249,-429 374.1249,-393 414.6249,-411"/>
</g>
<!-- nid&#45;02&#45;&gt;nid&#45;02&#45;ampout -->
<g id="edge1" class="edge">
<title>nid&#45;02&#45;&gt;nid&#45;02&#45;ampout</title>
<path fill="none" stroke="#0000ff" d="M88.2923,-411C159.4006,-411 314.9922,-411 368.8408,-411"/>
<polygon fill="#0000ff" stroke="#0000ff" points="369.0213,-412.7501 374.0213,-411 369.0213,-409.2501 369.0213,-412.7501"/>
</g>
<!-- nid&#45;14&#45;in -->
<g id="node19" class="node">
<title>nid&#45;14&#45;in</title>
<polygon fill="none" stroke="#00ff00" points="855.6249,-636 694.6249,-636 694.6249,-568 855.6249,-568 855.6249,-636"/>
<text text-anchor="middle" x="775.1249" y="-620.8" font-family="Times,serif" font-size="14.00" fill="#000000">0x14</text>
<text text-anchor="middle" x="775.1249" y="-605.8" font-family="Times,serif" font-size="14.00" fill="#000000">[N/A] Speaker at Ext Rear</text>
<text text-anchor="middle" x="775.1249" y="-590.8" font-family="Times,serif" font-size="14.00" fill="#000000">Stereo</text>
<text text-anchor="middle" x="775.1249" y="-575.8" font-family="Times,serif" font-size="14.00" fill="#000000">OUT EAPD</text>
</g>
<!-- nid&#45;02&#45;ampout&#45;&gt;nid&#45;14&#45;in -->
<g id="edge10" class="edge">
<title>nid&#45;02&#45;ampout&#45;&gt;nid&#45;14&#45;in</title>
<path fill="none" stroke="#333333" d="M400.3778,-417.4275C440.9825,-437.8745 570.9382,-503.1764 679.1249,-556 684.1071,-558.4326 689.24,-560.9268 694.4197,-563.4348"/>
<polygon fill="#333333" stroke="#333333" points="693.2449,-566.7542 703.7716,-567.9535 696.2904,-560.4514 693.2449,-566.7542"/>
</g>
<!-- nid&#45;15&#45;in -->
<g id="node20" class="node">
<title>nid&#45;15&#45;in</title>
<polygon fill="none" stroke="#00ff00" points="855.6249,-268 694.6249,-268 694.6249,-200 855.6249,-200 855.6249,-268"/>
<text text-anchor="middle" x="775.1249" y="-252.8" font-family="Times,serif" font-size="14.00" fill="#000000">0x15</text>
<text text-anchor="middle" x="775.1249" y="-237.8" font-family="Times,serif" font-size="14.00" fill="#000000">[N/A] Speaker at Ext Rear</text>
<text text-anchor="middle" x="775.1249" y="-222.8" font-family="Times,serif" font-size="14.00" fill="#000000">Stereo</text>
<text text-anchor="middle" x="775.1249" y="-207.8" font-family="Times,serif" font-size="14.00" fill="#000000">OUT HP EAPD Detect</text>
</g>
<!-- nid&#45;02&#45;ampout&#45;&gt;nid&#45;15&#45;in -->
<g id="edge11" class="edge">
<title>nid&#45;02&#45;ampout&#45;&gt;nid&#45;15&#45;in</title>
<path fill="none" stroke="#333333" d="M400.9635,-404.9073C446.0867,-384.2962 595.5345,-316.0322 691.3441,-272.2689"/>
<polygon fill="#333333" stroke="#333333" points="692.8015,-275.4511 700.4433,-268.1126 689.893,-269.0839 692.8015,-275.4511"/>
</g>
<!-- nid&#45;16&#45;in -->
<g id="node21" class="node">
<title>nid&#45;16&#45;in</title>
<polygon fill="none" stroke="#00ff00" points="855.6249,-544 694.6249,-544 694.6249,-476 855.6249,-476 855.6249,-544"/>
<text text-anchor="middle" x="775.1249" y="-528.8" font-family="Times,serif" font-size="14.00" fill="#000000">0x16</text>
<text text-anchor="middle" x="775.1249" y="-513.8" font-family="Times,serif" font-size="14.00" fill="#000000">[N/A] Speaker at Ext Rear</text>
<text text-anchor="middle" x="775.1249" y="-498.8" font-family="Times,serif" font-size="14.00" fill="#000000">Stereo</text>
<text text-anchor="middle" x="775.1249" y="-483.8" font-family="Times,serif" font-size="14.00" fill="#000000">OUT EAPD Detect</text>
</g>
<!-- nid&#45;02&#45;ampout&#45;&gt;nid&#45;16&#45;in -->
<g id="edge14" class="edge">
<title>nid&#45;02&#45;ampout&#45;&gt;nid&#45;16&#45;in</title>
<path fill="none" stroke="#333333" d="M404.7753,-415.3816C452.8024,-427.6518 591.2095,-463.0126 684.5362,-486.856"/>
<polygon fill="#333333" stroke="#333333" points="683.7139,-490.2583 694.2691,-489.3426 685.4467,-483.4762 683.7139,-490.2583"/>
</g>
<!-- nid&#45;17&#45;in -->
<g id="node22" class="node">
<title>nid&#45;17&#45;in</title>
<polygon fill="none" stroke="#00ff00" points="855.6249,-176 694.6249,-176 694.6249,-108 855.6249,-108 855.6249,-176"/>
<text text-anchor="middle" x="775.1249" y="-160.8" font-family="Times,serif" font-size="14.00" fill="#000000">0x17</text>
<text text-anchor="middle" x="775.1249" y="-145.8" font-family="Times,serif" font-size="14.00" fill="#000000">[N/A] Speaker at Ext Rear</text>
<text text-anchor="middle" x="775.1249" y="-130.8" font-family="Times,serif" font-size="14.00" fill="#000000">Stereo</text>
<text text-anchor="middle" x="775.1249" y="-115.8" font-family="Times,serif" font-size="14.00" fill="#000000">OUT HP EAPD Detect</text>
</g>
<!-- nid&#45;02&#45;ampout&#45;&gt;nid&#45;17&#45;in -->
<g id="edge16" class="edge">
<title>nid&#45;02&#45;ampout&#45;&gt;nid&#45;17&#45;in</title>
<path fill="none" stroke="#333333" d="M401.8893,-405.2033C420.4427,-397.362 453.507,-382.3443 479.1249,-365 577.4162,-298.4531 580.2062,-253.6108 679.1249,-188 682.6335,-185.6728 686.2779,-183.3955 690.0061,-181.1777"/>
<polygon fill="#333333" stroke="#333333" points="691.8997,-184.1265 698.833,-176.1152 688.4171,-178.0543 691.8997,-184.1265"/>
</g>
<!-- nid&#45;1b&#45;in -->
<g id="node26" class="node">
<title>nid&#45;1b&#45;in</title>
<polygon fill="none" stroke="#00ff00" points="858.6249,-452 691.6249,-452 691.6249,-384 858.6249,-384 858.6249,-452"/>
<text text-anchor="middle" x="775.1249" y="-436.8" font-family="Times,serif" font-size="14.00" fill="#000000">0x1b</text>
<text text-anchor="middle" x="775.1249" y="-421.8" font-family="Times,serif" font-size="14.00" fill="#000000">[Jack] Line Out at Ext Rear</text>
<text text-anchor="middle" x="775.1249" y="-406.8" font-family="Times,serif" font-size="14.00" fill="#000000">Stereo</text>
<text text-anchor="middle" x="775.1249" y="-391.8" font-family="Times,serif" font-size="14.00" fill="#000000">IN OUT EAPD Detect</text>
</g>
<!-- nid&#45;02&#45;ampout&#45;&gt;nid&#45;1b&#45;in -->
<g id="edge21" class="edge">
<title>nid&#45;02&#45;ampout&#45;&gt;nid&#45;1b&#45;in</title>
<path fill="none" stroke="#333333" d="M413.6516,-411.4702C467.4356,-412.4417 593.1525,-414.7128 681.1322,-416.3021"/>
<polygon fill="#333333" stroke="#333333" points="681.3366,-419.8062 691.3983,-416.4875 681.4631,-412.8074 681.3366,-419.8062"/>
</g>
<!-- nid&#45;21&#45;in -->
<g id="node32" class="node">
<title>nid&#45;21&#45;in</title>
<polygon fill="none" stroke="#00ff00" points="857.1249,-360 693.1249,-360 693.1249,-292 857.1249,-292 857.1249,-360"/>
<text text-anchor="middle" x="775.1249" y="-344.8" font-family="Times,serif" font-size="14.00" fill="#000000">0x21</text>
<text text-anchor="middle" x="775.1249" y="-329.8" font-family="Times,serif" font-size="14.00" fill="#000000">[Jack] HP Out at Ext Front</text>
<text text-anchor="middle" x="775.1249" y="-314.8" font-family="Times,serif" font-size="14.00" fill="#000000">Stereo</text>
<text text-anchor="middle" x="775.1249" y="-299.8" font-family="Times,serif" font-size="14.00" fill="#000000">OUT HP EAPD Detect</text>
</g>
<!-- nid&#45;02&#45;ampout&#45;&gt;nid&#45;21&#45;in -->
<g id="edge24" class="edge">
<title>nid&#45;02&#45;ampout&#45;&gt;nid&#45;21&#45;in</title>
<path fill="none" stroke="#c0c0c0" stroke-dasharray="5,2" d="M405.7951,-407.0143C454.4474,-396.3422 590.2578,-366.5515 682.9027,-346.2294"/>
<polygon fill="#c0c0c0" stroke="#c0c0c0" points="683.8338,-349.6084 692.8517,-344.047 682.334,-342.771 683.8338,-349.6084"/>
</g>
<!-- nid&#45;03 -->
<g id="node3" class="node">
<title>nid&#45;03</title>
<ellipse fill="none" stroke="#0000ff" cx="52.0624" cy="-326" rx="36.125" ry="26.7407"/>
<text text-anchor="middle" x="52.0624" y="-329.8" font-family="Times,serif" font-size="14.00" fill="#000000">0x03</text>
<text text-anchor="middle" x="52.0624" y="-314.8" font-family="Times,serif" font-size="14.00" fill="#000000">Stereo</text>
</g>
<!-- nid&#45;03&#45;ampout -->
<g id="node4" class="node">
<title>nid&#45;03&#45;ampout</title>
<polygon fill="none" stroke="#0000ff" points="414.6249,-326 374.1249,-344 374.1249,-308 414.6249,-326"/>
</g>
<!-- nid&#45;03&#45;&gt;nid&#45;03&#45;ampout -->
<g id="edge2" class="edge">
<title>nid&#45;03&#45;&gt;nid&#45;03&#45;ampout</title>
<path fill="none" stroke="#0000ff" d="M88.2923,-326C159.4006,-326 314.9922,-326 368.8408,-326"/>
<polygon fill="#0000ff" stroke="#0000ff" points="369.0213,-327.7501 374.0213,-326 369.0213,-324.2501 369.0213,-327.7501"/>
</g>
<!-- nid&#45;03&#45;ampout&#45;&gt;nid&#45;15&#45;in -->
<g id="edge12" class="edge">
<title>nid&#45;03&#45;ampout&#45;&gt;nid&#45;15&#45;in</title>
<path fill="none" stroke="#c0c0c0" stroke-dasharray="5,2" d="M405.2819,-321.8079C453.7808,-310.2933 591.6039,-277.5714 684.6054,-255.4911"/>
<polygon fill="#c0c0c0" stroke="#c0c0c0" points="685.6655,-258.8368 694.5865,-253.1214 684.0484,-252.0261 685.6655,-258.8368"/>
</g>
<!-- nid&#45;03&#45;ampout&#45;&gt;nid&#45;16&#45;in -->
<g id="edge15" class="edge">
<title>nid&#45;03&#45;ampout&#45;&gt;nid&#45;16&#45;in</title>
<path fill="none" stroke="#c0c0c0" stroke-dasharray="5,2" d="M400.9635,-332.3337C446.5379,-353.9742 598.5339,-426.1478 694.2022,-471.5748"/>
<polygon fill="#c0c0c0" stroke="#c0c0c0" points="692.7444,-474.7571 703.2791,-475.8848 695.747,-468.4337 692.7444,-474.7571"/>
</g>
<!-- nid&#45;03&#45;ampout&#45;&gt;nid&#45;17&#45;in -->
<g id="edge17" class="edge">
<title>nid&#45;03&#45;ampout&#45;&gt;nid&#45;17&#45;in</title>
<path fill="none" stroke="#c0c0c0" stroke-dasharray="5,2" d="M400.9635,-319.6663C446.5379,-298.0258 598.5339,-225.8522 694.2022,-180.4252"/>
<polygon fill="#c0c0c0" stroke="#c0c0c0" points="695.747,-183.5663 703.2791,-176.1152 692.7444,-177.2429 695.747,-183.5663"/>
</g>
<!-- nid&#45;03&#45;ampout&#45;&gt;nid&#45;1b&#45;in -->
<g id="edge22" class="edge">
<title>nid&#45;03&#45;ampout&#45;&gt;nid&#45;1b&#45;in</title>
<path fill="none" stroke="#c0c0c0" stroke-dasharray="5,2" d="M405.2819,-330.1921C453.2094,-341.571 588.3686,-373.6604 681.2997,-395.7241"/>
<polygon fill="#c0c0c0" stroke="#c0c0c0" points="680.7456,-399.1898 691.2837,-398.0945 682.3626,-392.3791 680.7456,-399.1898"/>
</g>
<!-- nid&#45;03&#45;ampout&#45;&gt;nid&#45;21&#45;in -->
<g id="edge25" class="edge">
<title>nid&#45;03&#45;ampout&#45;&gt;nid&#45;21&#45;in</title>
<path fill="none" stroke="#333333" d="M414.8731,-326C469.6406,-326 595.2887,-326 682.6793,-326"/>
<polygon fill="#333333" stroke="#333333" points="682.873,-329.5001 692.873,-326 682.8729,-322.5001 682.873,-329.5001"/>
</g>
<!-- nid&#45;06 -->
<g id="node5" class="node">
<title>nid&#45;06</title>
<ellipse fill="none" stroke="#0000ff" cx="387.6249" cy="-142" rx="36.125" ry="26.7407"/>
<text text-anchor="middle" x="387.6249" y="-145.8" font-family="Times,serif" font-size="14.00" fill="#000000">0x06</text>
<text text-anchor="middle" x="387.6249" y="-130.8" font-family="Times,serif" font-size="14.00" fill="#000000">Stereo</text>
</g>
<!-- nid&#45;06&#45;&gt;nid&#45;15&#45;in -->
<g id="edge13" class="edge">
<title>nid&#45;06&#45;&gt;nid&#45;15&#45;in</title>
<path fill="none" stroke="#c0c0c0" stroke-dasharray="5,2" d="M422.0129,-150.1644C480.3641,-164.0181 600.5903,-192.5621 684.4592,-212.4742"/>
<polygon fill="#c0c0c0" stroke="#c0c0c0" points="683.7061,-215.8926 694.2442,-214.7974 685.3232,-209.082 683.7061,-215.8926"/>
</g>
<!-- nid&#45;06&#45;&gt;nid&#45;17&#45;in -->
<g id="edge18" class="edge">
<title>nid&#45;06&#45;&gt;nid&#45;17&#45;in</title>
<path fill="none" stroke="#c0c0c0" stroke-dasharray="5,2" d="M423.732,-142C482.6201,-142 601.0921,-142 684.13,-142"/>
<polygon fill="#c0c0c0" stroke="#c0c0c0" points="684.3285,-145.5001 694.3284,-142 684.3284,-138.5001 684.3285,-145.5001"/>
</g>
<!-- nid&#45;1e&#45;in -->
<g id="node30" class="node">
<title>nid&#45;1e&#45;in</title>
<polygon fill="none" stroke="#00ff00" points="863.1249,-84 687.1249,-84 687.1249,-16 863.1249,-16 863.1249,-84"/>
<text text-anchor="middle" x="775.1249" y="-68.8" font-family="Times,serif" font-size="14.00" fill="#000000">0x1e</text>
<text text-anchor="middle" x="775.1249" y="-53.8" font-family="Times,serif" font-size="14.00" fill="#000000">[Jack] SPDIF Out at Ext Left</text>
<text text-anchor="middle" x="775.1249" y="-38.8" font-family="Times,serif" font-size="14.00" fill="#000000">Stereo</text>
<text text-anchor="middle" x="775.1249" y="-23.8" font-family="Times,serif" font-size="14.00" fill="#000000">OUT Detect</text>
</g>
<!-- nid&#45;06&#45;&gt;nid&#45;1e&#45;in -->
<g id="edge23" class="edge">
<title>nid&#45;06&#45;&gt;nid&#45;1e&#45;in</title>
<path fill="none" stroke="#333333" d="M422.0129,-133.8356C478.6715,-120.3838 593.6674,-93.0815 677.0713,-73.2798"/>
<polygon fill="#333333" stroke="#333333" points="677.903,-76.6797 686.824,-70.9643 676.2859,-69.8691 677.903,-76.6797"/>
</g>
<!-- nid&#45;07 -->
<g id="node6" class="node">
<title>nid&#45;07</title>
<ellipse fill="none" stroke="#ff0000" cx="1403.3122" cy="-978" rx="36.125" ry="26.7407"/>
<text text-anchor="middle" x="1403.3122" y="-981.8" font-family="Times,serif" font-size="14.00" fill="#000000">0x07</text>
<text text-anchor="middle" x="1403.3122" y="-966.8" font-family="Times,serif" font-size="14.00" fill="#000000">Stereo</text>
</g>
<!-- nid&#45;07&#45;ampin -->
<g id="node7" class="node">
<title>nid&#45;07&#45;ampin</title>
<polygon fill="none" stroke="#3232f1" points="1142.1873,-978 1101.6873,-996 1101.6873,-960 1142.1873,-978"/>
</g>
<!-- nid&#45;07&#45;ampin&#45;&gt;nid&#45;07 -->
<g id="edge3" class="edge">
<title>nid&#45;07&#45;ampin&#45;&gt;nid&#45;07</title>
<path fill="none" stroke="#3232f1" d="M1142.2934,-978C1192.8792,-978 1301.9457,-978 1361.8407,-978"/>
<polygon fill="#3232f1" stroke="#3232f1" points="1362.1264,-979.7501 1367.1264,-978 1362.1264,-976.2501 1362.1264,-979.7501"/>
</g>
<!-- nid&#45;24 -->
<g id="node8" class="node">
<title>nid&#45;24</title>
<polygon fill="none" stroke="#000000" points="827.874,-1016 743.962,-1016 722.3758,-940 806.2878,-940 827.874,-1016"/>
<text text-anchor="middle" x="775.1249" y="-981.8" font-family="Times,serif" font-size="14.00" fill="#000000">0x24</text>
<text text-anchor="middle" x="775.1249" y="-966.8" font-family="Times,serif" font-size="14.00" fill="#000000">Stereo</text>
</g>
<!-- nid&#45;24&#45;&gt;nid&#45;07&#45;ampin -->
<g id="edge4" class="edge">
<title>nid&#45;24&#45;&gt;nid&#45;07&#45;ampin</title>
<path fill="none" stroke="#333333" d="M817.1643,-978C889.3006,-978 1034.3899,-978 1091.4058,-978"/>
<polygon fill="#333333" stroke="#333333" points="1091.587,-981.5001 1101.5869,-978 1091.5869,-974.5001 1091.587,-981.5001"/>
</g>
<!-- nid&#45;08 -->
<g id="node9" class="node">
<title>nid&#45;08</title>
<ellipse fill="none" stroke="#ff0000" cx="1403.3122" cy="-798" rx="36.125" ry="26.7407"/>
<text text-anchor="middle" x="1403.3122" y="-801.8" font-family="Times,serif" font-size="14.00" fill="#000000">0x08</text>
<text text-anchor="middle" x="1403.3122" y="-786.8" font-family="Times,serif" font-size="14.00" fill="#000000">Stereo</text>
</g>
<!-- nid&#45;08&#45;ampin -->
<g id="node10" class="node">
<title>nid&#45;08&#45;ampin</title>
<polygon fill="none" stroke="#c8c8c8" points="1142.1873,-798 1101.6873,-816 1101.6873,-780 1142.1873,-798"/>
</g>
<!-- nid&#45;08&#45;ampin&#45;&gt;nid&#45;08 -->
<g id="edge5" class="edge">
<title>nid&#45;08&#45;ampin&#45;&gt;nid&#45;08</title>
<path fill="none" stroke="#c8c8c8" d="M1142.2934,-798C1192.8792,-798 1301.9457,-798 1361.8407,-798"/>
<polygon fill="#c8c8c8" stroke="#c8c8c8" points="1362.1264,-799.7501 1367.1264,-798 1362.1264,-796.2501 1362.1264,-799.7501"/>
</g>
<!-- nid&#45;23 -->
<g id="node11" class="node">
<title>nid&#45;23</title>
<polygon fill="none" stroke="#000000" points="827.874,-836 743.962,-836 722.3758,-760 806.2878,-760 827.874,-836"/>
<text text-anchor="middle" x="775.1249" y="-801.8" font-family="Times,serif" font-size="14.00" fill="#000000">0x23</text>
<text text-anchor="middle" x="775.1249" y="-786.8" font-family="Times,serif" font-size="14.00" fill="#000000">Stereo</text>
</g>
<!-- nid&#45;23&#45;&gt;nid&#45;08&#45;ampin -->
<g id="edge6" class="edge">
<title>nid&#45;23&#45;&gt;nid&#45;08&#45;ampin</title>
<path fill="none" stroke="#333333" d="M817.1643,-798C889.3006,-798 1034.3899,-798 1091.4058,-798"/>
<polygon fill="#333333" stroke="#333333" points="1091.587,-801.5001 1101.5869,-798 1091.5869,-794.5001 1091.587,-801.5001"/>
</g>
<!-- nid&#45;09 -->
<g id="node12" class="node">
<title>nid&#45;09</title>
<ellipse fill="none" stroke="#ff0000" cx="1403.3122" cy="-698" rx="36.125" ry="26.7407"/>
<text text-anchor="middle" x="1403.3122" y="-701.8" font-family="Times,serif" font-size="14.00" fill="#000000">0x09</text>
<text text-anchor="middle" x="1403.3122" y="-686.8" font-family="Times,serif" font-size="14.00" fill="#000000">Stereo</text>
</g>
<!-- nid&#45;09&#45;ampin -->
<g id="node13" class="node">
<title>nid&#45;09&#45;ampin</title>
<polygon fill="none" stroke="#c8c8c8" points="1142.1873,-698 1101.6873,-716 1101.6873,-680 1142.1873,-698"/>
</g>
<!-- nid&#45;09&#45;ampin&#45;&gt;nid&#45;09 -->
<g id="edge7" class="edge">
<title>nid&#45;09&#45;ampin&#45;&gt;nid&#45;09</title>
<path fill="none" stroke="#c8c8c8" d="M1142.2934,-698C1192.8792,-698 1301.9457,-698 1361.8407,-698"/>
<polygon fill="#c8c8c8" stroke="#c8c8c8" points="1362.1264,-699.7501 1367.1264,-698 1362.1264,-696.2501 1362.1264,-699.7501"/>
</g>
<!-- nid&#45;22 -->
<g id="node14" class="node">
<title>nid&#45;22</title>
<polygon fill="none" stroke="#000000" points="827.874,-736 743.962,-736 722.3758,-660 806.2878,-660 827.874,-736"/>
<text text-anchor="middle" x="775.1249" y="-701.8" font-family="Times,serif" font-size="14.00" fill="#000000">0x22</text>
<text text-anchor="middle" x="775.1249" y="-686.8" font-family="Times,serif" font-size="14.00" fill="#000000">Stereo</text>
</g>
<!-- nid&#45;22&#45;&gt;nid&#45;09&#45;ampin -->
<g id="edge8" class="edge">
<title>nid&#45;22&#45;&gt;nid&#45;09&#45;ampin</title>
<path fill="none" stroke="#333333" d="M817.1643,-698C889.3006,-698 1034.3899,-698 1091.4058,-698"/>
<polygon fill="#333333" stroke="#333333" points="1091.587,-701.5001 1101.5869,-698 1091.5869,-694.5001 1091.587,-701.5001"/>
</g>
<!-- nid&#45;0a -->
<g id="node15" class="node">
<title>nid&#45;0a</title>
<ellipse fill="none" stroke="#ff0000" cx="1115.1873" cy="-1112" rx="36.125" ry="26.7407"/>
<text text-anchor="middle" x="1115.1873" y="-1115.8" font-family="Times,serif" font-size="14.00" fill="#000000">0x0a</text>
<text text-anchor="middle" x="1115.1873" y="-1100.8" font-family="Times,serif" font-size="14.00" fill="#000000">Stereo</text>
</g>
<!-- nid&#45;25 -->
<g id="node16" class="node">
<title>nid&#45;25</title>
<polygon fill="none" stroke="#000000" points="826.8007,-1150 744.596,-1150 723.4491,-1074 805.6537,-1074 826.8007,-1150"/>
<text text-anchor="middle" x="775.1249" y="-1115.8" font-family="Times,serif" font-size="14.00" fill="#000000">0x25</text>
<text text-anchor="middle" x="775.1249" y="-1100.8" font-family="Times,serif" font-size="14.00" fill="#000000">Mono</text>
</g>
<!-- nid&#45;25&#45;&gt;nid&#45;0a -->
<g id="edge9" class="edge">
<title>nid&#45;25&#45;&gt;nid&#45;0a</title>
<path fill="none" stroke="#333333" d="M816.4832,-1112C880.246,-1112 1002.1477,-1112 1068.8153,-1112"/>
<polygon fill="#333333" stroke="#333333" points="1069.0234,-1115.5001 1079.0234,-1112 1069.0234,-1108.5001 1069.0234,-1115.5001"/>
</g>
<!-- nid&#45;12&#45;out -->
<g id="node17" class="node">
<title>nid&#45;12&#45;out</title>
<polygon fill="none" stroke="#00ff00" points="458.6249,-870 316.6249,-870 316.6249,-802 458.6249,-802 458.6249,-870"/>
<text text-anchor="middle" x="387.6249" y="-854.8" font-family="Times,serif" font-size="14.00" fill="#000000">0x12</text>
<text text-anchor="middle" x="387.6249" y="-839.8" font-family="Times,serif" font-size="14.00" fill="#000000">[Fixed] Mic at Int N/A</text>
<text text-anchor="middle" x="387.6249" y="-824.8" font-family="Times,serif" font-size="14.00" fill="#000000">Stereo</text>
<text text-anchor="middle" x="387.6249" y="-809.8" font-family="Times,serif" font-size="14.00" fill="#000000">IN</text>
</g>
<!-- nid&#45;12&#45;out&#45;&gt;nid&#45;24 -->
<g id="edge36" class="edge">
<title>nid&#45;12&#45;out&#45;&gt;nid&#45;24</title>
<path fill="none" stroke="#c0c0c0" stroke-dasharray="5,2" d="M458.6984,-862.045C533.4602,-889.4416 649.6206,-932.0087 718.4548,-957.2332"/>
<polygon fill="#c0c0c0" stroke="#c0c0c0" points="717.6631,-960.6706 728.2568,-960.8251 720.0716,-954.098 717.6631,-960.6706"/>
</g>
<!-- nid&#45;12&#45;out&#45;&gt;nid&#45;22 -->
<g id="edge29" class="edge">
<title>nid&#45;12&#45;out&#45;&gt;nid&#45;22</title>
<path fill="none" stroke="#c0c0c0" stroke-dasharray="5,2" d="M458.6984,-810.6887C536.7922,-782.8772 660.0569,-738.979 727.3684,-715.0075"/>
<polygon fill="#c0c0c0" stroke="#c0c0c0" points="728.6354,-718.2717 736.8816,-711.6195 726.2869,-711.6773 728.6354,-718.2717"/>
</g>
<!-- nid&#45;13&#45;out -->
<g id="node18" class="node">
<title>nid&#45;13&#45;out</title>
<polygon fill="none" stroke="#00ff00" points="458.6249,-1054 316.6249,-1054 316.6249,-986 458.6249,-986 458.6249,-1054"/>
<text text-anchor="middle" x="387.6249" y="-1038.8" font-family="Times,serif" font-size="14.00" fill="#000000">0x13</text>
<text text-anchor="middle" x="387.6249" y="-1023.8" font-family="Times,serif" font-size="14.00" fill="#000000">[Fixed] Mic at Int N/A</text>
<text text-anchor="middle" x="387.6249" y="-1008.8" font-family="Times,serif" font-size="14.00" fill="#000000">Stereo</text>
<text text-anchor="middle" x="387.6249" y="-993.8" font-family="Times,serif" font-size="14.00" fill="#000000">IN</text>
</g>
<!-- nid&#45;13&#45;out&#45;&gt;nid&#45;24 -->
<g id="edge37" class="edge">
<title>nid&#45;13&#45;out&#45;&gt;nid&#45;24</title>
<path fill="none" stroke="#333333" d="M458.6984,-1012.2966C535.5931,-1003.9622 656.2821,-990.881 724.2285,-983.5165"/>
<polygon fill="#333333" stroke="#333333" points="724.6979,-986.9862 734.2625,-982.429 723.9435,-980.027 724.6979,-986.9862"/>
</g>
<!-- nid&#45;13&#45;out&#45;&gt;nid&#45;23 -->
<g id="edge34" class="edge">
<title>nid&#45;13&#45;out&#45;&gt;nid&#45;23</title>
<path fill="none" stroke="#c0c0c0" stroke-dasharray="5,2" d="M456.8431,-985.854C464.4022,-981.9316 471.9518,-977.9292 479.1249,-974 569.711,-924.3792 672.8349,-861.5793 730.3215,-825.9851"/>
<polygon fill="#c0c0c0" stroke="#c0c0c0" points="732.493,-828.757 739.147,-820.5123 728.8039,-822.8079 732.493,-828.757"/>
</g>
<!-- nid&#45;18&#45;out -->
<g id="node23" class="node">
<title>nid&#45;18&#45;out</title>
<polygon fill="none" stroke="#00ff00" points="468.1249,-962 307.1249,-962 307.1249,-894 468.1249,-894 468.1249,-962"/>
<text text-anchor="middle" x="387.6249" y="-946.8" font-family="Times,serif" font-size="14.00" fill="#000000">0x18</text>
<text text-anchor="middle" x="387.6249" y="-931.8" font-family="Times,serif" font-size="14.00" fill="#000000">[N/A] Speaker at Ext Rear</text>
<text text-anchor="middle" x="387.6249" y="-916.8" font-family="Times,serif" font-size="14.00" fill="#000000">Stereo</text>
<text text-anchor="middle" x="387.6249" y="-901.8" font-family="Times,serif" font-size="14.00" fill="#000000">IN Detect</text>
</g>
<!-- nid&#45;18&#45;out&#45;&gt;nid&#45;24 -->
<g id="edge38" class="edge">
<title>nid&#45;18&#45;out&#45;&gt;nid&#45;24</title>
<path fill="none" stroke="#c0c0c0" stroke-dasharray="5,2" d="M468.3859,-938.4208C544.2867,-948.2144 655.7478,-962.5965 721.332,-971.059"/>
<polygon fill="#c0c0c0" stroke="#c0c0c0" points="721.0858,-974.5562 731.4515,-972.3647 721.9817,-967.6137 721.0858,-974.5562"/>
</g>
<!-- nid&#45;18&#45;out&#45;&gt;nid&#45;23 -->
<g id="edge35" class="edge">
<title>nid&#45;18&#45;out&#45;&gt;nid&#45;23</title>
<path fill="none" stroke="#c0c0c0" stroke-dasharray="5,2" d="M468.3859,-900.906C546.5527,-874.6823 662.4346,-835.8058 727.081,-814.1179"/>
<polygon fill="#c0c0c0" stroke="#c0c0c0" points="728.2523,-817.4168 736.6198,-810.9178 726.0258,-810.7803 728.2523,-817.4168"/>
</g>
<!-- nid&#45;18&#45;out&#45;&gt;nid&#45;22 -->
<g id="edge30" class="edge">
<title>nid&#45;18&#45;out&#45;&gt;nid&#45;22</title>
<path fill="none" stroke="#c0c0c0" stroke-dasharray="5,2" d="M457.5522,-893.9804C464.9052,-890.0669 472.2138,-886.0314 479.1249,-882 571.5459,-828.0884 587.0929,-802.573 679.1249,-748 695.0688,-738.5456 712.9788,-728.9537 728.9725,-720.7338"/>
<polygon fill="#c0c0c0" stroke="#c0c0c0" points="730.8171,-723.7222 738.1386,-716.0641 727.6395,-717.485 730.8171,-723.7222"/>
</g>
<!-- nid&#45;18&#45;out&#45;&gt;nid&#45;25 -->
<g id="edge41" class="edge">
<title>nid&#45;18&#45;out&#45;&gt;nid&#45;25</title>
<path fill="none" stroke="#c0c0c0" stroke-dasharray="5,2" d="M459.6025,-962.1778C534.334,-997.6632 649.7124,-1052.4493 718.29,-1085.0126"/>
<polygon fill="#c0c0c0" stroke="#c0c0c0" points="717.1123,-1088.3279 727.6469,-1089.4556 720.1149,-1082.0045 717.1123,-1088.3279"/>
</g>
<!-- nid&#45;19&#45;out -->
<g id="node24" class="node">
<title>nid&#45;19&#45;out</title>
<polygon fill="none" stroke="#00ff00" points="468.1249,-778 307.1249,-778 307.1249,-710 468.1249,-710 468.1249,-778"/>
<text text-anchor="middle" x="387.6249" y="-762.8" font-family="Times,serif" font-size="14.00" fill="#000000">0x19</text>
<text text-anchor="middle" x="387.6249" y="-747.8" font-family="Times,serif" font-size="14.00" fill="#000000">[N/A] Speaker at Ext Rear</text>
<text text-anchor="middle" x="387.6249" y="-732.8" font-family="Times,serif" font-size="14.00" fill="#000000">Stereo</text>
<text text-anchor="middle" x="387.6249" y="-717.8" font-family="Times,serif" font-size="14.00" fill="#000000">IN Detect</text>
</g>
<!-- nid&#45;19&#45;out&#45;&gt;nid&#45;23 -->
<g id="edge31" class="edge">
<title>nid&#45;19&#45;out&#45;&gt;nid&#45;23</title>
<path fill="none" stroke="#333333" d="M468.3859,-755.2544C544.1815,-765.8169 655.4387,-781.3211 721.0589,-790.4656"/>
<polygon fill="#333333" stroke="#333333" points="720.7989,-793.9631 731.1862,-791.8769 721.7651,-787.0301 720.7989,-793.9631"/>
</g>
<!-- nid&#45;19&#45;out&#45;&gt;nid&#45;22 -->
<g id="edge26" class="edge">
<title>nid&#45;19&#45;out&#45;&gt;nid&#45;22</title>
<path fill="none" stroke="#333333" d="M468.3859,-734.4129C545.4447,-725.2653 659.1571,-711.7665 724.3015,-704.0332"/>
<polygon fill="#333333" stroke="#333333" points="724.809,-707.4976 734.3267,-702.8431 723.9838,-700.5465 724.809,-707.4976"/>
</g>
<!-- nid&#45;1a&#45;out -->
<g id="node25" class="node">
<title>nid&#45;1a&#45;out</title>
<polygon fill="none" stroke="#00ff00" points="468.1249,-686 307.1249,-686 307.1249,-618 468.1249,-618 468.1249,-686"/>
<text text-anchor="middle" x="387.6249" y="-670.8" font-family="Times,serif" font-size="14.00" fill="#000000">0x1a</text>
<text text-anchor="middle" x="387.6249" y="-655.8" font-family="Times,serif" font-size="14.00" fill="#000000">[N/A] Speaker at Ext Rear</text>
<text text-anchor="middle" x="387.6249" y="-640.8" font-family="Times,serif" font-size="14.00" fill="#000000">Stereo</text>
<text text-anchor="middle" x="387.6249" y="-625.8" font-family="Times,serif" font-size="14.00" fill="#000000">IN Detect</text>
</g>
<!-- nid&#45;1a&#45;out&#45;&gt;nid&#45;23 -->
<g id="edge32" class="edge">
<title>nid&#45;1a&#45;out&#45;&gt;nid&#45;23</title>
<path fill="none" stroke="#c0c0c0" stroke-dasharray="5,2" d="M468.3859,-682.4287C543.2249,-710.6261 652.6362,-751.8494 718.5528,-776.6851"/>
<polygon fill="#c0c0c0" stroke="#c0c0c0" points="717.3615,-779.9764 727.9534,-780.227 719.8296,-773.4259 717.3615,-779.9764"/>
</g>
<!-- nid&#45;1a&#45;out&#45;&gt;nid&#45;22 -->
<g id="edge27" class="edge">
<title>nid&#45;1a&#45;out&#45;&gt;nid&#45;22</title>
<path fill="none" stroke="#c0c0c0" stroke-dasharray="5,2" d="M468.3859,-661.5871C544.2867,-670.5973 655.7478,-683.8288 721.332,-691.6143"/>
<polygon fill="#c0c0c0" stroke="#c0c0c0" points="721.1086,-695.1122 731.4515,-692.8155 721.9339,-688.161 721.1086,-695.1122"/>
</g>
<!-- nid&#45;1b&#45;ampout -->
<g id="node27" class="node">
<title>nid&#45;1b&#45;ampout</title>
<polygon fill="none" stroke="#0000ff" points="1142.1873,-418 1101.6873,-436 1101.6873,-400 1142.1873,-418"/>
</g>
<!-- nid&#45;1b&#45;in&#45;&gt;nid&#45;1b&#45;ampout -->
<g id="edge19" class="edge">
<title>nid&#45;1b&#45;in&#45;&gt;nid&#45;1b&#45;ampout</title>
<path fill="none" stroke="#0000ff" d="M858.7491,-418C938.3083,-418 1052.243,-418 1096.5586,-418"/>
<polygon fill="#0000ff" stroke="#0000ff" points="1096.6109,-419.7501 1101.6108,-418 1096.6108,-416.2501 1096.6109,-419.7501"/>
</g>
<!-- nid&#45;1b&#45;out -->
<g id="node28" class="node">
<title>nid&#45;1b&#45;out</title>
<polygon fill="none" stroke="#00ff00" points="471.1249,-594 304.1249,-594 304.1249,-526 471.1249,-526 471.1249,-594"/>
<text text-anchor="middle" x="387.6249" y="-578.8" font-family="Times,serif" font-size="14.00" fill="#000000">0x1b</text>
<text text-anchor="middle" x="387.6249" y="-563.8" font-family="Times,serif" font-size="14.00" fill="#000000">[Jack] Line Out at Ext Rear</text>
<text text-anchor="middle" x="387.6249" y="-548.8" font-family="Times,serif" font-size="14.00" fill="#000000">Stereo</text>
<text text-anchor="middle" x="387.6249" y="-533.8" font-family="Times,serif" font-size="14.00" fill="#000000">IN OUT EAPD Detect</text>
</g>
<!-- nid&#45;1b&#45;out&#45;&gt;nid&#45;23 -->
<g id="edge33" class="edge">
<title>nid&#45;1b&#45;out&#45;&gt;nid&#45;23</title>
<path fill="none" stroke="#c0c0c0" stroke-dasharray="5,2" d="M458.1535,-594.093C465.3193,-597.9614 472.4214,-601.967 479.1249,-606 572.5371,-662.1997 586.1182,-691.1318 679.1249,-748 691.1228,-755.336 704.3098,-762.6558 716.9654,-769.3419"/>
<polygon fill="#c0c0c0" stroke="#c0c0c0" points="715.5775,-772.5655 726.0621,-774.0896 718.8163,-766.3598 715.5775,-772.5655"/>
</g>
<!-- nid&#45;1b&#45;out&#45;&gt;nid&#45;22 -->
<g id="edge28" class="edge">
<title>nid&#45;1b&#45;out&#45;&gt;nid&#45;22</title>
<path fill="none" stroke="#c0c0c0" stroke-dasharray="5,2" d="M471.2295,-589.774C546.0391,-616.4159 653.6544,-654.7408 718.7236,-677.9139"/>
<polygon fill="#c0c0c0" stroke="#c0c0c0" points="717.8033,-681.3014 728.398,-681.3592 720.1518,-674.7071 717.8033,-681.3014"/>
</g>
<!-- nid&#45;1b&#45;ampin -->
<g id="node29" class="node">
<title>nid&#45;1b&#45;ampin</title>
<polygon fill="none" stroke="#0000ff" points="79.0624,-560 38.5624,-578 38.5624,-542 79.0624,-560"/>
</g>
<!-- nid&#45;1b&#45;ampin&#45;&gt;nid&#45;1b&#45;out -->
<g id="edge20" class="edge">
<title>nid&#45;1b&#45;ampin&#45;&gt;nid&#45;1b&#45;out</title>
<path fill="none" stroke="#0000ff" d="M79.2387,-560C126.4734,-560 225.6653,-560 298.8583,-560"/>
<polygon fill="#0000ff" stroke="#0000ff" points="299.0822,-561.7501 304.0822,-560 299.0822,-558.2501 299.0822,-561.7501"/>
</g>
<!-- nid&#45;1f&#45;out -->
<g id="node31" class="node">
<title>nid&#45;1f&#45;out</title>
<polygon fill="none" stroke="#00ff00" points="468.1249,-1238 307.1249,-1238 307.1249,-1170 468.1249,-1170 468.1249,-1238"/>
<text text-anchor="middle" x="387.6249" y="-1222.8" font-family="Times,serif" font-size="14.00" fill="#000000">0x1f</text>
<text text-anchor="middle" x="387.6249" y="-1207.8" font-family="Times,serif" font-size="14.00" fill="#000000">[N/A] Speaker at Ext Rear</text>
<text text-anchor="middle" x="387.6249" y="-1192.8" font-family="Times,serif" font-size="14.00" fill="#000000">Stereo</text>
<text text-anchor="middle" x="387.6249" y="-1177.8" font-family="Times,serif" font-size="14.00" fill="#000000">IN Detect</text>
</g>
<!-- nid&#45;1f&#45;out&#45;&gt;nid&#45;25 -->
<g id="edge40" class="edge">
<title>nid&#45;1f&#45;out&#45;&gt;nid&#45;25</title>
<path fill="none" stroke="#333333" d="M468.3859,-1184.8258C546.2869,-1166.3306 661.647,-1138.9419 726.4198,-1123.5635"/>
<polygon fill="#333333" stroke="#333333" points="727.4466,-1126.9171 736.3677,-1121.2017 725.8296,-1120.1064 727.4466,-1126.9171"/>
</g>
<!-- nid&#45;29&#45;out -->
<g id="node33" class="node">
<title>nid&#45;29&#45;out</title>
<polygon fill="none" stroke="#00ff00" points="468.1249,-1146 307.1249,-1146 307.1249,-1078 468.1249,-1078 468.1249,-1146"/>
<text text-anchor="middle" x="387.6249" y="-1130.8" font-family="Times,serif" font-size="14.00" fill="#000000">0x29</text>
<text text-anchor="middle" x="387.6249" y="-1115.8" font-family="Times,serif" font-size="14.00" fill="#000000">[N/A] Speaker at Ext Rear</text>
<text text-anchor="middle" x="387.6249" y="-1100.8" font-family="Times,serif" font-size="14.00" fill="#000000">Stereo</text>
<text text-anchor="middle" x="387.6249" y="-1085.8" font-family="Times,serif" font-size="14.00" fill="#000000">IN Detect</text>
</g>
<!-- nid&#45;29&#45;out&#45;&gt;nid&#45;24 -->
<g id="edge39" class="edge">
<title>nid&#45;29&#45;out&#45;&gt;nid&#45;24</title>
<path fill="none" stroke="#c0c0c0" stroke-dasharray="5,2" d="M468.3859,-1084.0723C546.6582,-1057.0053 662.7474,-1016.8609 727.3425,-994.5235"/>
<polygon fill="#c0c0c0" stroke="#c0c0c0" points="728.5642,-997.8044 736.8712,-991.2284 726.2764,-991.1888 728.5642,-997.8044"/>
</g>
<!-- nid&#45;29&#45;out&#45;&gt;nid&#45;25 -->
<g id="edge42" class="edge">
<title>nid&#45;29&#45;out&#45;&gt;nid&#45;25</title>
<path fill="none" stroke="#c0c0c0" stroke-dasharray="5,2" d="M468.3859,-1112C545.2342,-1112 658.536,-1112 723.7664,-1112"/>
<polygon fill="#c0c0c0" stroke="#c0c0c0" points="723.8099,-1115.5001 733.8098,-1112 723.8098,-1108.5001 723.8099,-1115.5001"/>
</g>
</g>
</svg>
